CalSansUI-Bold.ufo
<glyph name="numbersign" format="2">
  <advance width="743"/>
  <unicode hex="0023"/>
  <outline>
    <contour>
      <point x="341" y="0" type="line"/>
      <point x="459" y="0" type="line"/>
      <point x="518" y="235" type="line"/>
      <point x="522" y="258" type="line"/>
      <point x="581" y="492" type="line"/>
      <point x="589" y="515" type="line"/>
      <point x="643" y="730" type="line"/>
      <point x="523" y="730" type="line"/>
      <point x="470" y="515" type="line"/>
      <point x="469" y="492" type="line"/>
      <point x="410" y="257" type="line"/>
      <point x="400" y="236" type="line"/>
    </contour>
    <contour>
      <point x="91" y="0" type="line"/>
      <point x="209" y="0" type="line"/>
      <point x="269" y="237" type="line"/>
      <point x="269" y="258" type="line"/>
      <point x="328" y="492" type="line"/>
      <point x="339" y="514" type="line"/>
      <point x="393" y="730" type="line"/>
      <point x="273" y="730" type="line"/>
      <point x="219" y="515" type="line"/>
      <point x="215" y="492" type="line"/>
      <point x="157" y="259" type="line"/>
      <point x="149" y="235" type="line"/>
    </contour>
    <contour>
      <point x="58" y="191" type="line"/>
      <point x="670" y="191" type="line"/>
      <point x="670" y="298" type="line"/>
      <point x="58" y="298" type="line"/>
    </contour>
    <contour>
      <point x="73" y="448" type="line"/>
      <point x="685" y="448" type="line"/>
      <point x="685" y="555" type="line"/>
      <point x="73" y="555" type="line"/>
    </contour>
  </outline>
</glyph>
<glyph name="quotesingle" format="2">
  <advance width="241"/>
  <unicode hex="0027"/>
  <outline>
    <contour>
      <point x="84" y="423" type="line"/>
      <point x="156" y="423" type="line"/>
      <point x="182" y="643" type="line" smooth="yes"/>
      <point x="187" y="683"/>
      <point x="157" y="713"/>
      <point x="121" y="713" type="curve" smooth="yes"/>
      <point x="85" y="713"/>
      <point x="54" y="683"/>
      <point x="59" y="643" type="curve" smooth="yes"/>
    </contour>
  </outline>
</glyph>
<glyph name="period" format="2">
  <advance width="283"/>
  <unicode hex="002E"/>
  <outline>
    <contour>
      <point x="142" y="-13" type="curve" smooth="yes"/>
      <point x="194" y="-13"/>
      <point x="231" y="27"/>
      <point x="231" y="75" type="curve" smooth="yes"/>
      <point x="231" y="122"/>
      <point x="194" y="162"/>
      <point x="142" y="162" type="curve" smooth="yes"/>
      <point x="90" y="162"/>
      <point x="52" y="122"/>
      <point x="52" y="75" type="curve" smooth="yes"/>
      <point x="52" y="27"/>
      <point x="90" y="-13"/>
    </contour>
  </outline>
</glyph>
<glyph name="one" format="2">
  <advance width="382"/>
  <unicode hex="0031"/>
  <outline>
    <contour>
      <point x="164" y="0" type="line"/>
      <point x="299" y="0" type="line"/>
      <point x="299" y="713" type="line"/>
      <point x="15" y="594" type="line"/>
      <point x="67" y="470" type="line"/>
      <point x="160" y="509" type="line"/>
      <point x="164" y="505" type="line"/>
    </contour>
  </outline>
</glyph>
<glyph name="equal" format="2">
  <advance width="596"/>
  <unicode hex="003D"/>
  <outline>
    <contour>
      <point x="65" y="367" type="line"/>
      <point x="517" y="367" type="line"/>
      <point x="517" y="477" type="line"/>
      <point x="65" y="477" type="line"/>
    </contour>
    <contour>
      <point x="65" y="154" type="line"/>
      <point x="517" y="154" type="line"/>
      <point x="517" y="264" type="line"/>
      <point x="65" y="264" type="line"/>
    </contour>
  </outline>
</glyph>
<glyph name="question" format="2">
  <advance width="530"/>
  <unicode hex="003F"/>
  <outline>
    <contour>
      <point x="203" y="213" type="line"/>
      <point x="303" y="213" type="line"/>
      <point x="309" y="301" type="line"/>
      <point x="312" y="304" type="line"/>
      <point x="414" y="320"/>
      <point x="490" y="407"/>
      <point x="490" y="506" type="curve" smooth="yes"/>
      <point x="490" y="634"/>
      <point x="393" y="713"/>
      <point x="264" y="713" type="curve" smooth="yes"/>
      <point x="133" y="713"/>
      <point x="34" y="632"/>
      <point x="34" y="500" type="curve"/>
      <point x="169" y="500" type="line"/>
      <point x="169" y="557"/>
      <point x="206" y="592"/>
      <point x="264" y="592" type="curve" smooth="yes"/>
      <point x="320" y="592"/>
      <point x="355" y="557"/>
      <point x="355" y="500" type="curve" smooth="yes"/>
      <point x="355" y="435"/>
      <point x="310" y="394"/>
      <point x="239" y="394" type="curve" smooth="yes"/>
      <point x="219" y="394"/>
      <point x="201" y="397"/>
      <point x="192" y="402" type="curve"/>
    </contour>
    <component base="period" xOffset="112"/>
  </outline>
</glyph>
<glyph name="at" format="2">
  <advance width="1001"/>
  <unicode hex="0040"/>
  <outline>
    <contour>
      <point x="520" y="-216" type="curve" smooth="yes"/>
      <point x="574" y="-216"/>
      <point x="626" y="-208"/>
      <point x="674" y="-192" type="curve"/>
      <point x="641" y="-105" type="line"/>
      <point x="605" y="-117"/>
      <point x="564" y="-125"/>
      <point x="521" y="-125" type="curve" smooth="yes"/>
      <point x="302" y="-125"/>
      <point x="150" y="41"/>
      <point x="150" y="248" type="curve" smooth="yes"/>
      <point x="150" y="453"/>
      <point x="302" y="621"/>
      <point x="518" y="621" type="curve" smooth="yes"/>
      <point x="737" y="621"/>
      <point x="856" y="450"/>
      <point x="856" y="307" type="curve" smooth="yes"/>
      <point x="856" y="202"/>
      <point x="825" y="147"/>
      <point x="775" y="147" type="curve" smooth="yes"/>
      <point x="734" y="147"/>
      <point x="718" y="180"/>
      <point x="718" y="208" type="curve" smooth="yes"/>
      <point x="718" y="221"/>
      <point x="719" y="239"/>
      <point x="721" y="255" type="curve" smooth="yes"/>
      <point x="747" y="462" type="line"/>
      <point x="613" y="462" type="line"/>
      <point x="607" y="411" type="line"/>
      <point x="602" y="411" type="line"/>
      <point x="584" y="447"/>
      <point x="550" y="471"/>
      <point x="491" y="471" type="curve" smooth="yes"/>
      <point x="367" y="471"/>
      <point x="267" y="358"/>
      <point x="267" y="235" type="curve" smooth="yes"/>
      <point x="267" y="120"/>
      <point x="346" y="39"/>
      <point x="459" y="39" type="curve" smooth="yes"/>
      <point x="529" y="39"/>
      <point x="579" y="83"/>
      <point x="594" y="127" type="curve"/>
      <point x="599" y="127" type="line"/>
      <point x="625" y="74"/>
      <point x="667" y="39"/>
      <point x="750" y="39" type="curve" smooth="yes"/>
      <point x="893" y="39"/>
      <point x="955" y="161"/>
      <point x="955" y="296" type="curve" smooth="yes"/>
      <point x="955" y="507"/>
      <point x="784" y="713"/>
      <point x="520" y="713" type="curve" smooth="yes"/>
      <point x="253" y="713"/>
      <point x="51" y="507"/>
      <point x="51" y="248" type="curve" smooth="yes"/>
      <point x="51" y="-13"/>
      <point x="253" y="-216"/>
    </contour>
    <contour>
      <point x="494" y="160" type="curve" smooth="yes"/>
      <point x="442" y="160"/>
      <point x="412" y="197"/>
      <point x="412" y="241" type="curve" smooth="yes"/>
      <point x="412" y="299"/>
      <point x="457" y="349"/>
      <point x="514" y="349" type="curve" smooth="yes"/>
      <point x="568" y="349"/>
      <point x="596" y="313"/>
      <point x="596" y="266" type="curve" smooth="yes"/>
      <point x="596" y="211"/>
      <point x="553" y="160"/>
    </contour>
  </outline>
</glyph>
<glyph name="A" format="2">
  <advance width="714"/>
  <unicode hex="0041"/>
  <anchor x="362" y="0" name="bottom"/>
  <anchor x="547" y="0" name="ogonek"/>
  <anchor x="357" y="700" name="top"/>
  <anchor x="357" y="619" name="top_ring"/>
  <outline>
    <contour>
      <point x="11" y="0" type="line"/>
      <point x="168" y="0" type="line"/>
      <point x="226" y="166" type="line"/>
      <point x="241" y="207" type="line"/>
      <point x="321" y="427" type="line" smooth="yes"/>
      <point x="338" y="473"/>
      <point x="347" y="509"/>
      <point x="352" y="529" type="curve"/>
      <point x="360" y="529" type="line"/>
      <point x="365" y="509"/>
      <point x="376" y="473"/>
      <point x="393" y="427" type="curve" smooth="yes"/>
      <point x="473" y="207" type="line"/>
      <point x="488" y="166" type="line"/>
      <point x="547" y="0" type="line"/>
      <point x="703" y="0" type="line"/>
      <point x="418" y="700" type="line"/>
      <point x="297" y="700" type="line"/>
    </contour>
    <contour>
      <point x="161" y="119" type="line"/>
      <point x="540" y="119" type="line"/>
      <point x="540" y="254" type="line"/>
      <point x="161" y="254" type="line"/>
    </contour>
  </outline>
</glyph>
<glyph name="D" format="2">
  <advance width="736"/>
  <unicode hex="0044"/>
  <anchor x="349" y="0" name="bottom"/>
  <anchor x="150" y="349" name="center"/>
  <anchor x="367" y="700" name="top"/>
  <outline>
    <contour>
      <point x="80" y="0" type="line"/>
      <point x="315" y="0" type="line" smooth="yes"/>
      <point x="542" y="0"/>
      <point x="694" y="140"/>
      <point x="694" y="349" type="curve" smooth="yes"/>
      <point x="694" y="560"/>
      <point x="542" y="700"/>
      <point x="315" y="700" type="curve" smooth="yes"/>
      <point x="80" y="700" type="line"/>
    </contour>
    <contour>
      <point x="220" y="135" type="line"/>
      <point x="220" y="565" type="line"/>
      <point x="311" y="565" type="line" smooth="yes"/>
      <point x="464" y="565"/>
      <point x="551" y="497"/>
      <point x="551" y="349" type="curve" smooth="yes"/>
      <point x="551" y="202"/>
      <point x="464" y="135"/>
      <point x="311" y="135" type="curve" smooth="yes"/>
    </contour>
  </outline>
</glyph>
<glyph name="H" format="2">
  <advance width="730"/>
  <unicode hex="0048"/>
  <anchor x="365" y="0" name="bottom"/>
  <anchor x="510" y="0" name="ogonek"/>
  <anchor x="365" y="700" name="top"/>
  <outline>
    <contour>
      <point x="80" y="0" type="line"/>
      <point x="220" y="0" type="line"/>
      <point x="220" y="295" type="line"/>
      <point x="510" y="295" type="line"/>
      <point x="510" y="0" type="line"/>
      <point x="650" y="0" type="line"/>
      <point x="650" y="700" type="line"/>
      <point x="510" y="700" type="line"/>
      <point x="510" y="430" type="line"/>
      <point x="220" y="430" type="line"/>
      <point x="220" y="700" type="line"/>
      <point x="80" y="700" type="line"/>
    </contour>
  </outline>
</glyph>
<glyph name="K" format="2">
  <advance width="648"/>
  <unicode hex="004B"/>
  <anchor x="323" y="0" name="bottom"/>
  <anchor x="462" y="0" name="ogonek"/>
  <anchor x="313" y="701" name="top"/>
  <outline>
    <contour>
      <point x="80" y="0" type="line"/>
      <point x="220" y="0" type="line"/>
      <point x="220" y="309" type="line"/>
      <point x="223" y="309" type="line"/>
      <point x="462" y="0" type="line"/>
      <point x="641" y="0" type="line"/>
      <point x="350" y="372" type="line"/>
      <point x="621" y="700" type="line"/>
      <point x="438" y="700" type="line"/>
      <point x="223" y="411" type="line"/>
      <point x="220" y="411" type="line"/>
      <point x="220" y="700" type="line"/>
      <point x="80" y="700" type="line"/>
    </contour>
  </outline>
</glyph>
<glyph name="M" format="2">
  <advance width="948"/>
  <unicode hex="004D"/>
  <anchor x="476" y="0" name="bottom"/>
  <anchor x="731" y="0" name="ogonek"/>
  <anchor x="475" y="700" name="top"/>
  <outline>
    <contour>
      <point x="80" y="0" type="line"/>
      <point x="217" y="0" type="line"/>
      <point x="217" y="283" type="line" smooth="yes"/>
      <point x="217" y="391"/>
      <point x="213" y="456"/>
      <point x="203" y="499" type="curve"/>
      <point x="207" y="499" type="line"/>
      <point x="440" y="0" type="line"/>
      <point x="508" y="0" type="line"/>
      <point x="741" y="499" type="line"/>
      <point x="745" y="499" type="line"/>
      <point x="735" y="459"/>
      <point x="731" y="394"/>
      <point x="731" y="283" type="curve" smooth="yes"/>
      <point x="731" y="0" type="line"/>
      <point x="868" y="0" type="line"/>
      <point x="868" y="700" type="line"/>
      <point x="701" y="700" type="line"/>
      <point x="554" y="391" type="line" smooth="yes"/>
      <point x="511" y="300"/>
      <point x="487" y="243"/>
      <point x="479" y="206" type="curve"/>
      <point x="475" y="206" type="line"/>
      <point x="467" y="243"/>
      <point x="442" y="300"/>
      <point x="399" y="391" type="curve" smooth="yes"/>
      <point x="253" y="700" type="line"/>
      <point x="80" y="700" type="line"/>
    </contour>
  </outline>
</glyph>
<glyph name="R" format="2">
  <advance width="631"/>
  <unicode hex="0052"/>
  <anchor x="333" y="0" name="bottom"/>
  <anchor x="442" y="0" name="ogonek"/>
  <anchor x="308" y="700" name="top"/>
  <outline>
    <contour>
      <point x="80" y="0" type="line"/>
      <point x="220" y="0" type="line"/>
      <point x="220" y="281" type="line"/>
      <point x="264" y="281" type="line"/>
      <point x="272" y="256"/>
      <point x="283" y="237"/>
      <point x="293" y="222" type="curve" smooth="yes"/>
      <point x="442" y="0" type="line"/>
      <point x="607" y="0" type="line"/>
      <point x="411" y="295" type="line"/>
      <point x="514" y="317"/>
      <point x="579" y="385"/>
      <point x="579" y="490" type="curve" smooth="yes"/>
      <point x="579" y="617"/>
      <point x="483" y="700"/>
      <point x="338" y="700" type="curve" smooth="yes"/>
      <point x="80" y="700" type="line"/>
    </contour>
    <contour>
      <point x="220" y="411" type="line"/>
      <point x="220" y="565" type="line"/>
      <point x="317" y="565" type="line" smooth="yes"/>
      <point x="399" y="565"/>
      <point x="437" y="545"/>
      <point x="437" y="489" type="curve" smooth="yes"/>
      <point x="437" y="432"/>
      <point x="399" y="411"/>
      <point x="317" y="411" type="curve" smooth="yes"/>
    </contour>
  </outline>
</glyph>
<glyph name="S" format="2">
  <advance width="616"/>
  <unicode hex="0053"/>
  <anchor x="308" y="0" name="bottom"/>
  <anchor x="408" y="0" name="ogonek"/>
  <anchor x="328" y="700" name="top"/>
  <outline>
    <contour>
      <point x="308" y="-13" type="curve" smooth="yes"/>
      <point x="467" y="-13"/>
      <point x="564" y="73"/>
      <point x="564" y="200" type="curve" smooth="yes"/>
      <point x="564" y="451"/>
      <point x="235" y="397"/>
      <point x="235" y="506" type="curve" smooth="yes"/>
      <point x="235" y="554"/>
      <point x="270" y="579"/>
      <point x="330" y="579" type="curve" smooth="yes"/>
      <point x="380" y="579"/>
      <point x="413" y="556"/>
      <point x="444" y="504" type="curve"/>
      <point x="560" y="584" type="line"/>
      <point x="504" y="663"/>
      <point x="442" y="712"/>
      <point x="333" y="712" type="curve" smooth="yes"/>
      <point x="185" y="712"/>
      <point x="84" y="629"/>
      <point x="84" y="503" type="curve" smooth="yes"/>
      <point x="84" y="254"/>
      <point x="413" y="331"/>
      <point x="413" y="198" type="curve" smooth="yes"/>
      <point x="413" y="152"/>
      <point x="372" y="121"/>
      <point x="311" y="121" type="curve" smooth="yes"/>
      <point x="253" y="121"/>
      <point x="204" y="147"/>
      <point x="166" y="214" type="curve"/>
      <point x="45" y="130" type="line"/>
      <point x="111" y="26"/>
      <point x="197" y="-13"/>
    </contour>
  </outline>
</glyph>
<glyph name="V" format="2">
  <advance width="720"/>
  <unicode hex="0056"/>
  <anchor x="362" y="0" name="bottom"/>
  <anchor x="430" y="0" name="ogonek"/>
  <anchor x="362" y="700" name="top"/>
  <outline>
    <contour>
      <point x="292" y="0" type="line"/>
      <point x="430" y="0" type="line"/>
      <point x="707" y="700" type="line"/>
      <point x="551" y="700" type="line"/>
      <point x="391" y="255" type="line" smooth="yes"/>
      <point x="384" y="236"/>
      <point x="370" y="196"/>
      <point x="366" y="171" type="curve"/>
      <point x="358" y="171" type="line"/>
      <point x="354" y="196"/>
      <point x="339" y="236"/>
      <point x="332" y="255" type="curve" smooth="yes"/>
      <point x="172" y="700" type="line"/>
      <point x="13" y="700" type="line"/>
    </contour>
  </outline>
</glyph>
<glyph name="X" format="2">
  <advance width="668"/>
  <unicode hex="0058"/>
  <anchor x="334" y="0" name="bottom"/>
  <anchor x="334" y="700" name="top"/>
  <outline>
    <contour>
      <point x="20" y="0" type="line"/>
      <point x="186" y="0" type="line"/>
      <point x="334" y="235" type="line"/>
      <point x="338" y="235" type="line"/>
      <point x="482" y="0" type="line"/>
      <point x="651" y="0" type="line"/>
      <point x="421" y="348" type="line"/>
      <point x="640" y="700" type="line"/>
      <point x="477" y="700" type="line"/>
      <point x="338" y="465" type="line"/>
      <point x="334" y="465" type="line"/>
      <point x="198" y="700" type="line"/>
      <point x="31" y="700" type="line"/>
      <point x="250" y="351" type="line"/>
    </contour>
  </outline>
</glyph>
<glyph name="bracketleft" format="2">
  <advance width="358"/>
  <unicode hex="005B"/>
  <outline>
    <contour>
      <point x="85" y="-220" type="line"/>
      <point x="298" y="-220" type="line"/>
      <point x="298" y="-113" type="line"/>
      <point x="213" y="-113" type="line"/>
      <point x="213" y="633" type="line"/>
      <point x="298" y="633" type="line"/>
      <point x="298" y="740" type="line"/>
      <point x="85" y="740" type="line"/>
    </contour>
  </outline>
</glyph>
<glyph name="backslash" format="2">
  <advance width="528"/>
  <unicode hex="005C"/>
  <outline>
    <contour>
      <point x="330" y="-13" type="line"/>
      <point x="478" y="-13" type="line"/>
      <point x="205" y="740" type="line"/>
      <point x="55" y="740" type="line"/>
    </contour>
  </outline>
</glyph>
<glyph name="asciicircum" format="2">
  <advance width="600"/>
  <unicode hex="005E"/>
  <outline>
    <contour>
      <point x="92" y="474" type="line"/>
      <point x="232" y="474" type="line"/>
      <point x="300" y="639" type="line"/>
      <point x="305" y="639" type="line"/>
      <point x="372" y="474" type="line"/>
      <point x="508" y="474" type="line"/>
      <point x="384" y="713" type="line"/>
      <point x="221" y="713" type="line"/>
    </contour>
  </outline>
</glyph>
<glyph name="g" format="2">
  <advance width="654"/>
  <unicode hex="0067"/>
  <anchor x="319" y="-220" name="bottom"/>
  <anchor x="406" y="-220" name="ogonek"/>
  <anchor x="309" y="505" name="top"/>
  <outline>
    <contour>
      <point x="318" y="-233" type="curve" smooth="yes"/>
      <point x="456" y="-233"/>
      <point x="584" y="-141"/>
      <point x="584" y="20" type="curve" smooth="yes"/>
      <point x="584" y="505" type="line"/>
      <point x="453" y="505" type="line"/>
      <point x="453" y="429" type="line"/>
      <point x="447" y="429" type="line"/>
      <point x="428" y="484"/>
      <point x="362" y="518"/>
      <point x="290" y="518" type="curve" smooth="yes"/>
      <point x="141" y="518"/>
      <point x="40" y="393"/>
      <point x="40" y="252" type="curve" smooth="yes"/>
      <point x="40" y="112"/>
      <point x="141" y="-13"/>
      <point x="290" y="-13" type="curve" smooth="yes"/>
      <point x="358" y="-13"/>
      <point x="424" y="21"/>
      <point x="443" y="74" type="curve"/>
      <point x="449" y="74" type="line"/>
      <point x="449" y="28" type="line" smooth="yes"/>
      <point x="449" y="-56"/>
      <point x="385" y="-108"/>
      <point x="313" y="-108" type="curve" smooth="yes"/>
      <point x="239" y="-108"/>
      <point x="197" y="-78"/>
      <point x="168" y="-19" type="curve"/>
      <point x="56" y="-96" type="line"/>
      <point x="128" y="-211"/>
      <point x="209" y="-233"/>
    </contour>
    <contour>
      <point x="312" y="110" type="curve" smooth="yes"/>
      <point x="233" y="110"/>
      <point x="175" y="171"/>
      <point x="175" y="253" type="curve" smooth="yes"/>
      <point x="175" y="334"/>
      <point x="233" y="395"/>
      <point x="312" y="395" type="curve" smooth="yes"/>
      <point x="391" y="395"/>
      <point x="449" y="334"/>
      <point x="449" y="252" type="curve" smooth="yes"/>
      <point x="449" y="171"/>
      <point x="391" y="110"/>
    </contour>
  </outline>
</glyph>
<glyph name="p" format="2">
  <advance width="654"/>
  <unicode hex="0070"/>
  <anchor x="373" y="0" name="bottom"/>
  <anchor x="444" y="0" name="ogonek"/>
  <anchor x="355" y="505" name="top"/>
  <outline>
    <contour>
      <point x="364" y="-13" type="curve" smooth="yes"/>
      <point x="513" y="-13"/>
      <point x="614" y="112"/>
      <point x="614" y="252" type="curve" smooth="yes"/>
      <point x="614" y="393"/>
      <point x="513" y="518"/>
      <point x="364" y="518" type="curve" smooth="yes"/>
      <point x="292" y="518"/>
      <point x="226" y="484"/>
      <point x="207" y="429" type="curve"/>
      <point x="201" y="429" type="line"/>
      <point x="201" y="505" type="line"/>
      <point x="70" y="505" type="line"/>
      <point x="70" y="-220" type="line"/>
      <point x="205" y="-220" type="line"/>
      <point x="205" y="74" type="line"/>
      <point x="211" y="74" type="line"/>
      <point x="230" y="21"/>
      <point x="296" y="-13"/>
    </contour>
    <contour>
      <point x="342" y="110" type="curve" smooth="yes"/>
      <point x="263" y="110"/>
      <point x="205" y="171"/>
      <point x="205" y="252" type="curve" smooth="yes"/>
      <point x="205" y="334"/>
      <point x="263" y="395"/>
      <point x="342" y="395" type="curve" smooth="yes"/>
      <point x="421" y="395"/>
      <point x="479" y="334"/>
      <point x="479" y="253" type="curve" smooth="yes"/>
      <point x="479" y="171"/>
      <point x="421" y="110"/>
    </contour>
  </outline>
</glyph>
<glyph name="q" format="2">
  <advance width="644"/>
  <unicode hex="0071"/>
  <anchor x="296" y="0" name="bottom"/>
  <anchor x="362" y="0" name="ogonek"/>
  <anchor x="296" y="505" name="top"/>
  <outline>
    <contour>
      <point x="290" y="-13" type="curve" smooth="yes"/>
      <point x="358" y="-13"/>
      <point x="424" y="21"/>
      <point x="443" y="74" type="curve"/>
      <point x="449" y="74" type="line"/>
      <point x="449" y="-220" type="line"/>
      <point x="584" y="-220" type="line"/>
      <point x="584" y="505" type="line"/>
      <point x="454" y="505" type="line"/>
      <point x="454" y="429" type="line"/>
      <point x="448" y="429" type="line"/>
      <point x="429" y="484"/>
      <point x="363" y="518"/>
      <point x="290" y="518" type="curve" smooth="yes"/>
      <point x="141" y="518"/>
      <point x="40" y="393"/>
      <point x="40" y="252" type="curve" smooth="yes"/>
      <point x="40" y="112"/>
      <point x="141" y="-13"/>
    </contour>
    <contour>
      <point x="312" y="110" type="curve" smooth="yes"/>
      <point x="233" y="110"/>
      <point x="175" y="171"/>
      <point x="175" y="253" type="curve" smooth="yes"/>
      <point x="175" y="334"/>
      <point x="233" y="395"/>
      <point x="312" y="395" type="curve" smooth="yes"/>
      <point x="391" y="395"/>
      <point x="449" y="334"/>
      <point x="449" y="252" type="curve" smooth="yes"/>
      <point x="449" y="171"/>
      <point x="391" y="110"/>
    </contour>
  </outline>
</glyph>
<glyph name="r" format="2">
  <advance width="407"/>
  <unicode hex="0072"/>
  <anchor x="138" y="0" name="bottom"/>
  <anchor x="235" y="505" name="top"/>
  <outline>
    <contour>
      <point x="70" y="0" type="line"/>
      <point x="205" y="0" type="line"/>
      <point x="205" y="251" type="line" smooth="yes"/>
      <point x="205" y="338"/>
      <point x="270" y="385"/>
      <point x="368" y="385" type="curve" smooth="yes"/>
      <point x="396" y="385" type="line"/>
      <point x="398" y="511" type="line"/>
      <point x="389" y="511"/>
      <point x="381" y="512"/>
      <point x="372" y="512" type="curve" smooth="yes"/>
      <point x="278" y="512"/>
      <point x="223" y="483"/>
      <point x="206" y="423" type="curve"/>
      <point x="201" y="423" type="line"/>
      <point x="201" y="505" type="line"/>
      <point x="70" y="505" type="line"/>
    </contour>
  </outline>
</glyph>
<glyph name="t" format="2">
  <advance width="412"/>
  <unicode hex="0074"/>
  <anchor x="207" y="293" name="bar"/>
  <anchor x="252" y="0" name="bottom"/>
  <anchor x="181" y="276" name="center"/>
  <anchor x="181" y="637" name="top"/>
  <anchor x="310" y="740" name="topright"/>
  <outline>
    <contour>
      <point x="301" y="-13" type="curve" smooth="yes"/>
      <point x="343" y="-13"/>
      <point x="363" y="-10"/>
      <point x="392" y="-4" type="curve"/>
      <point x="392" y="110" type="line"/>
      <point x="374" y="105"/>
      <point x="350" y="102"/>
      <point x="322" y="102" type="curve" smooth="yes"/>
      <point x="285" y="102"/>
      <point x="248" y="123"/>
      <point x="248" y="174" type="curve" smooth="yes"/>
      <point x="248" y="644" type="line"/>
      <point x="113" y="630" type="line"/>
      <point x="113" y="163" type="line" smooth="yes"/>
      <point x="113" y="57"/>
      <point x="191" y="-13"/>
    </contour>
    <contour>
      <point x="20" y="385" type="line"/>
      <point x="392" y="385" type="line"/>
      <point x="392" y="505" type="line"/>
      <point x="20" y="505" type="line"/>
    </contour>
  </outline>
</glyph>
<glyph name="braceleft" format="2">
  <advance width="445"/>
  <unicode hex="007B"/>
  <outline>
    <contour>
      <point x="324" y="-224" type="curve" smooth="yes"/>
      <point x="340" y="-224"/>
      <point x="361" y="-223"/>
      <point x="385" y="-220" type="curve"/>
      <point x="385" y="-113" type="line"/>
      <point x="379" y="-114"/>
      <point x="372" y="-115"/>
      <point x="366" y="-115" type="curve" smooth="yes"/>
      <point x="324" y="-115"/>
      <point x="301" y="-88"/>
      <point x="301" y="-55" type="curve" smooth="yes"/>
      <point x="301" y="127" type="line" smooth="yes"/>
      <point x="301" y="241"/>
      <point x="208" y="270"/>
      <point x="190" y="272" type="curve"/>
      <point x="190" y="279" type="line"/>
      <point x="208" y="281"/>
      <point x="301" y="310"/>
      <point x="301" y="424" type="curve" smooth="yes"/>
      <point x="301" y="585" type="line" smooth="yes"/>
      <point x="301" y="618"/>
      <point x="324" y="645"/>
      <point x="366" y="645" type="curve" smooth="yes"/>
      <point x="372" y="645"/>
      <point x="379" y="644"/>
      <point x="385" y="643" type="curve"/>
      <point x="385" y="750" type="line"/>
      <point x="361" y="753"/>
      <point x="340" y="754"/>
      <point x="324" y="754" type="curve" smooth="yes"/>
      <point x="222" y="754"/>
      <point x="172" y="686"/>
      <point x="172" y="593" type="curve" smooth="yes"/>
      <point x="172" y="428" type="line" smooth="yes"/>
      <point x="172" y="360"/>
      <point x="145" y="346"/>
      <point x="65" y="340" type="curve"/>
      <point x="65" y="210" type="line"/>
      <point x="142" y="204"/>
      <point x="172" y="192"/>
      <point x="172" y="122" type="curve" smooth="yes"/>
      <point x="172" y="-63" type="line" smooth="yes"/>
      <point x="172" y="-156"/>
      <point x="222" y="-224"/>
    </contour>
  </outline>
</glyph>
<glyph name="sterling" format="2">
  <advance width="580"/>
  <unicode hex="00A3"/>
  <outline>
    <contour>
      <point x="110" y="20" type="line"/>
      <point x="135" y="55"/>
      <point x="174" y="69"/>
      <point x="220" y="69" type="curve" smooth="yes"/>
      <point x="295" y="69"/>
      <point x="300" y="24"/>
      <point x="396" y="24" type="curve" smooth="yes"/>
      <point x="441" y="24"/>
      <point x="511" y="45"/>
      <point x="558" y="109" type="curve"/>
      <point x="466" y="207" type="line"/>
      <point x="446" y="179"/>
      <point x="419" y="157"/>
      <point x="380" y="157" type="curve" smooth="yes"/>
      <point x="335" y="157"/>
      <point x="272" y="179"/>
      <point x="220" y="160" type="curve" smooth="yes"/>
      <point x="195" y="151"/>
      <point x="163" y="153"/>
      <point x="121" y="130" type="curve"/>
      <point x="188" y="126" type="line"/>
      <point x="247" y="163"/>
      <point x="277" y="224"/>
      <point x="277" y="262" type="curve" smooth="yes"/>
      <point x="277" y="289"/>
      <point x="272" y="303"/>
      <point x="258" y="326" type="curve"/>
      <point x="250" y="342" type="line"/>
      <point x="213" y="395"/>
      <point x="200" y="417"/>
      <point x="200" y="454" type="curve" smooth="yes"/>
      <point x="200" y="506"/>
      <point x="239" y="543"/>
      <point x="291" y="543" type="curve" smooth="yes"/>
      <point x="347" y="543"/>
      <point x="387" y="492"/>
      <point x="387" y="440" type="curve"/>
      <point x="532" y="440" type="line"/>
      <point x="532" y="576"/>
      <point x="439" y="673"/>
      <point x="283" y="673" type="curve" smooth="yes"/>
      <point x="138" y="673"/>
      <point x="55" y="569"/>
      <point x="55" y="466" type="curve" smooth="yes"/>
      <point x="55" y="418"/>
      <point x="78" y="385"/>
      <point x="133" y="330" type="curve"/>
      <point x="126" y="321" type="line"/>
      <point x="137" y="305"/>
      <point x="149" y="289"/>
      <point x="149" y="257" type="curve" smooth="yes"/>
      <point x="149" y="234"/>
      <point x="113" y="191"/>
      <point x="66" y="139" type="curve" smooth="yes"/>
      <point x="26" y="95" type="line"/>
    </contour>
    <contour>
      <point x="35" y="293" type="line"/>
      <point x="391" y="293" type="line"/>
      <point x="391" y="378" type="line"/>
      <point x="35" y="378" type="line"/>
    </contour>
  </outline>
</glyph>
<glyph name="yen" format="2">
  <advance width="642"/>
  <unicode hex="00A5"/>
  <anchor x="323.0" y="30.0" name="bottom"/>
  <anchor x="323.0" y="668.89" name="top"/>
  <anchor x="30.0" y="668.89" name="topleft"/>
  <outline>
    <contour>
      <point x="82" y="289" type="line"/>
      <point x="570" y="289" type="line"/>
      <point x="570" y="375" type="line"/>
      <point x="82" y="375" type="line"/>
    </contour>
    <contour>
      <point x="82" y="148" type="line"/>
      <point x="570" y="148" type="line"/>
      <point x="570" y="233" type="line"/>
      <point x="82" y="233" type="line"/>
    </contour>
    <component base="Y" yScale="0.9127" xOffset="10" yOffset="30"/>
  </outline>
</glyph>
<glyph name="brokenbar" format="2">
  <advance width="288"/>
  <unicode hex="00A6"/>
  <outline>
    <contour>
      <point x="80" y="375" type="line"/>
      <point x="208" y="375" type="line"/>
      <point x="208" y="900" type="line"/>
      <point x="80" y="900" type="line"/>
      <point x="80" y="535" type="line"/>
    </contour>
    <contour>
      <point x="208" y="305" type="line"/>
      <point x="80" y="305" type="line"/>
      <point x="80" y="3" type="line"/>
      <point x="80" y="-220" type="line"/>
      <point x="208" y="-220" type="line"/>
    </contour>
  </outline>
</glyph>
<glyph name="copyright" format="2">
  <advance width="901"/>
  <unicode hex="00A9"/>
  <outline>
    <contour>
      <point x="450" y="-50" type="curve" smooth="yes"/>
      <point x="672" y="-50"/>
      <point x="856" y="129"/>
      <point x="856" y="352" type="curve" smooth="yes"/>
      <point x="856" y="574"/>
      <point x="673" y="753"/>
      <point x="450" y="753" type="curve" smooth="yes"/>
      <point x="228" y="753"/>
      <point x="45" y="574"/>
      <point x="45" y="352" type="curve" smooth="yes"/>
      <point x="45" y="129"/>
      <point x="228" y="-50"/>
    </contour>
    <contour>
      <point x="450" y="27" type="curve" smooth="yes"/>
      <point x="272" y="27"/>
      <point x="129" y="173"/>
      <point x="129" y="352" type="curve" smooth="yes"/>
      <point x="129" y="530"/>
      <point x="272" y="676"/>
      <point x="450" y="676" type="curve" smooth="yes"/>
      <point x="629" y="676"/>
      <point x="772" y="530"/>
      <point x="772" y="352" type="curve" smooth="yes"/>
      <point x="772" y="173"/>
      <point x="628" y="27"/>
    </contour>
    <contour>
      <point x="452" y="114" type="curve" smooth="yes"/>
      <point x="539" y="114"/>
      <point x="602" y="146"/>
      <point x="649" y="199" type="curve"/>
      <point x="560" y="266" type="line"/>
      <point x="536" y="243"/>
      <point x="506" y="222"/>
      <point x="460" y="222" type="curve" smooth="yes"/>
      <point x="383" y="222"/>
      <point x="332" y="282"/>
      <point x="332" y="354" type="curve" smooth="yes"/>
      <point x="332" y="425"/>
      <point x="381" y="485"/>
      <point x="457" y="485" type="curve" smooth="yes"/>
      <point x="497" y="485"/>
      <point x="529" y="470"/>
      <point x="551" y="447" type="curve"/>
      <point x="643" y="511" type="line"/>
      <point x="602" y="564"/>
      <point x="539" y="594"/>
      <point x="455" y="594" type="curve" smooth="yes"/>
      <point x="304" y="594"/>
      <point x="213" y="486"/>
      <point x="213" y="354" type="curve" smooth="yes"/>
      <point x="213" y="222"/>
      <point x="299" y="114"/>
    </contour>
  </outline>
</glyph>
<glyph name="registered" format="2">
  <advance width="595"/>
  <unicode hex="00AE"/>
  <outline>
    <contour>
      <point x="297" y="230" type="curve" smooth="yes"/>
      <point x="435" y="230"/>
      <point x="548" y="341"/>
      <point x="548" y="479" type="curve" smooth="yes"/>
      <point x="548" y="617"/>
      <point x="435" y="727"/>
      <point x="297" y="727" type="curve" smooth="yes"/>
      <point x="160" y="727"/>
      <point x="47" y="617"/>
      <point x="47" y="479" type="curve" smooth="yes"/>
      <point x="47" y="341"/>
      <point x="160" y="230"/>
    </contour>
    <contour>
      <point x="297" y="291" type="curve" smooth="yes"/>
      <point x="195" y="291"/>
      <point x="112" y="376"/>
      <point x="112" y="479" type="curve" smooth="yes"/>
      <point x="112" y="581"/>
      <point x="195" y="666"/>
      <point x="297" y="666" type="curve" smooth="yes"/>
      <point x="400" y="666"/>
      <point x="483" y="581"/>
      <point x="483" y="479" type="curve" smooth="yes"/>
      <point x="483" y="376"/>
      <point x="400" y="291"/>
    </contour>
    <contour>
      <point x="201" y="350" type="line"/>
      <point x="256" y="350" type="line"/>
      <point x="256" y="451" type="line"/>
      <point x="280" y="451" type="line"/>
      <point x="283" y="443"/>
      <point x="285" y="438"/>
      <point x="289" y="432" type="curve" smooth="yes"/>
      <point x="345" y="350" type="line"/>
      <point x="409" y="350" type="line"/>
      <point x="337" y="455" type="line"/>
      <point x="377" y="464"/>
      <point x="399" y="490"/>
      <point x="399" y="531" type="curve" smooth="yes"/>
      <point x="399" y="581"/>
      <point x="363" y="610"/>
      <point x="305" y="610" type="curve" smooth="yes"/>
      <point x="201" y="610" type="line"/>
    </contour>
    <contour>
      <point x="256" y="499" type="line"/>
      <point x="256" y="561" type="line"/>
      <point x="298" y="561" type="line" smooth="yes"/>
      <point x="325" y="561"/>
      <point x="341" y="551"/>
      <point x="341" y="530" type="curve" smooth="yes"/>
      <point x="341" y="509"/>
      <point x="325" y="499"/>
      <point x="298" y="499" type="curve" smooth="yes"/>
    </contour>
  </outline>
</glyph>
<glyph name="plusminus" format="2">
  <advance width="596"/>
  <unicode hex="00B1"/>
  <outline>
    <contour>
      <point x="65" y="367" type="line"/>
      <point x="517" y="367" type="line"/>
      <point x="517" y="477" type="line"/>
      <point x="65" y="477" type="line"/>
    </contour>
    <contour>
      <point x="65" y="81" type="line"/>
      <point x="517" y="81" type="line"/>
      <point x="517" y="191" type="line"/>
      <point x="65" y="191" type="line"/>
    </contour>
    <contour>
      <point x="233" y="234" type="line"/>
      <point x="349" y="234" type="line"/>
      <point x="349" y="610" type="line"/>
      <point x="233" y="610" type="line"/>
    </contour>
  </outline>
</glyph>
<glyph name="eth" format="2">
  <advance width="614"/>
  <unicode hex="00F0"/>
  <outline>
    <contour>
      <point x="363" y="499" type="curve"/>
      <point x="357" y="495" type="line"/>
      <point x="331" y="506"/>
      <point x="303" y="511"/>
      <point x="276" y="511" type="curve" smooth="yes"/>
      <point x="159" y="511"/>
      <point x="40" y="406"/>
      <point x="40" y="252" type="curve" smooth="yes"/>
      <point x="40" y="101"/>
      <point x="150" y="-13"/>
      <point x="297" y="-13" type="curve" smooth="yes"/>
      <point x="459" y="-13"/>
      <point x="574" y="101"/>
      <point x="574" y="252" type="curve" smooth="yes"/>
      <point x="574" y="442"/>
      <point x="439" y="662"/>
      <point x="241" y="825" type="curve"/>
      <point x="144" y="734" type="line"/>
      <point x="243" y="656"/>
      <point x="306" y="591"/>
    </contour>
    <contour>
      <point x="307" y="110" type="curve" smooth="yes"/>
      <point x="231" y="110"/>
      <point x="175" y="165"/>
      <point x="175" y="252" type="curve" smooth="yes"/>
      <point x="175" y="340"/>
      <point x="231" y="395"/>
      <point x="307" y="395" type="curve" smooth="yes"/>
      <point x="383" y="395"/>
      <point x="439" y="340"/>
      <point x="439" y="252" type="curve" smooth="yes"/>
      <point x="439" y="165"/>
      <point x="383" y="110"/>
    </contour>
    <contour>
      <point x="153" y="527" type="line"/>
      <point x="514" y="637" type="line"/>
      <point x="514" y="754" type="line"/>
      <point x="353" y="705" type="line"/>
      <point x="298" y="677" type="line"/>
      <point x="153" y="637" type="line"/>
    </contour>
  </outline>
</glyph>
<glyph name="Dcroat" format="2">
  <advance width="736"/>
  <unicode hex="0110"/>
  <anchor x="349" y="0" name="bottom"/>
  <anchor x="150" y="349" name="center"/>
  <anchor x="367" y="700" name="top"/>
  <outline>
    <contour>
      <point x="10" y="295" type="line"/>
      <point x="369" y="295" type="line"/>
      <point x="369" y="415" type="line"/>
      <point x="10" y="415" type="line"/>
    </contour>
    <component base="D"/>
  </outline>
</glyph>
<glyph name="kgreenlandic" format="2">
  <advance width="578"/>
  <unicode hex="0138"/>
  <outline>
    <contour>
      <point x="70" y="0" type="line"/>
      <point x="205" y="0" type="line"/>
      <point x="205" y="236" type="line"/>
      <point x="210" y="236" type="line"/>
      <point x="394" y="0" type="line"/>
      <point x="553" y="0" type="line"/>
      <point x="344" y="274" type="line"/>
      <point x="552" y="505" type="line"/>
      <point x="380" y="505" type="line"/>
      <point x="210" y="296" type="line"/>
      <point x="205" y="296" type="line"/>
      <point x="205" y="505" type="line"/>
      <point x="70" y="505" type="line"/>
    </contour>
  </outline>
</glyph>
<glyph name="Lslash" format="2">
  <advance width="536"/>
  <unicode hex="0141"/>
  <anchor x="293" y="0" name="bottom"/>
  <anchor x="318" y="370" name="center"/>
  <anchor x="481" y="0" name="ogonek"/>
  <anchor x="146" y="700" name="top"/>
  <anchor x="308" y="700" name="topright"/>
  <outline>
    <contour>
      <point x="10" y="191" type="line"/>
      <point x="142" y="283" type="line"/>
      <point x="152" y="281" type="line"/>
      <point x="323" y="393" type="line"/>
      <point x="323" y="536" type="line"/>
      <point x="158" y="417" type="line"/>
      <point x="142" y="419" type="line"/>
      <point x="10" y="327" type="line"/>
    </contour>
    <component base="L"/>
  </outline>
</glyph>
<glyph name="lslash" format="2">
  <advance width="300"/>
  <unicode hex="0142"/>
  <anchor x="149" y="0" name="bottom"/>
  <anchor x="149" y="393" name="center"/>
  <anchor x="216" y="0" name="ogonek"/>
  <anchor x="149" y="740" name="top"/>
  <anchor x="266" y="740" name="topright"/>
  <outline>
    <contour>
      <point x="4" y="243" type="line"/>
      <point x="142" y="331" type="line"/>
      <point x="153" y="331" type="line"/>
      <point x="295" y="421" type="line"/>
      <point x="295" y="546" type="line"/>
      <point x="153" y="456" type="line"/>
      <point x="142" y="456" type="line"/>
      <point x="4" y="368" type="line"/>
    </contour>
    <component base="l" xOffset="11"/>
  </outline>
</glyph>
<glyph name="Eng" format="2">
  <advance width="776"/>
  <unicode hex="014A"/>
  <anchor x="395" y="0" name="bottom"/>
  <anchor x="676" y="0" name="ogonek"/>
  <anchor x="386" y="700" name="top"/>
  <outline>
    <contour>
      <point x="480" y="-229" type="curve" smooth="yes"/>
      <point x="620" y="-229"/>
      <point x="696" y="-160"/>
      <point x="696" y="-16" type="curve" smooth="yes"/>
      <point x="696" y="0" type="line"/>
      <point x="566" y="206" type="line"/>
      <point x="566" y="-25" type="line" smooth="yes"/>
      <point x="566" y="-71"/>
      <point x="534" y="-99"/>
      <point x="494" y="-99" type="curve" smooth="yes"/>
      <point x="459" y="-99"/>
      <point x="433" y="-80"/>
      <point x="417" y="-59" type="curve"/>
      <point x="330" y="-174" type="line"/>
      <point x="367" y="-208"/>
      <point x="420" y="-229"/>
    </contour>
    <component base="N"/>
  </outline>
</glyph>
<glyph name="eng" format="2">
  <advance width="605"/>
  <unicode hex="014B"/>
  <outline>
    <contour>
      <point x="70" y="0" type="line"/>
      <point x="205" y="0" type="line"/>
      <point x="205" y="290" type="line" smooth="yes"/>
      <point x="205" y="357"/>
      <point x="243" y="399"/>
      <point x="303" y="399" type="curve" smooth="yes"/>
      <point x="366" y="399"/>
      <point x="405" y="357"/>
      <point x="405" y="290" type="curve" smooth="yes"/>
      <point x="405" y="-60" type="line" smooth="yes"/>
      <point x="405" y="-93"/>
      <point x="389" y="-110"/>
      <point x="359" y="-110" type="curve" smooth="yes"/>
      <point x="345" y="-110"/>
      <point x="332" y="-108"/>
      <point x="319" y="-103" type="curve"/>
      <point x="300" y="-223" type="line"/>
      <point x="325" y="-230"/>
      <point x="351" y="-233"/>
      <point x="381" y="-233" type="curve" smooth="yes"/>
      <point x="484" y="-233"/>
      <point x="540" y="-170"/>
      <point x="540" y="-67" type="curve" smooth="yes"/>
      <point x="540" y="323" type="line" smooth="yes"/>
      <point x="540" y="434"/>
      <point x="454" y="517"/>
      <point x="357" y="517" type="curve" smooth="yes"/>
      <point x="281" y="517"/>
      <point x="230" y="477"/>
      <point x="207" y="440" type="curve"/>
      <point x="201" y="440" type="line"/>
      <point x="201" y="505" type="line"/>
      <point x="70" y="505" type="line"/>
    </contour>
  </outline>
</glyph>
<glyph name="OE" format="2">
  <advance width="1090"/>
  <unicode hex="0152"/>
  <anchor x="609" y="0" name="bottom"/>
  <anchor x="928" y="0" name="ogonek"/>
  <anchor x="609" y="700" name="top"/>
  <outline>
    <contour>
      <point x="655" y="150" type="curve"/>
      <point x="588" y="69" type="line"/>
      <point x="612" y="69" type="line"/>
      <point x="620" y="630" type="line"/>
      <point x="589" y="630" type="line"/>
      <point x="655" y="549" type="line"/>
      <point x="613" y="648"/>
      <point x="529" y="713"/>
      <point x="392" y="713" type="curve" smooth="yes"/>
      <point x="194" y="713"/>
      <point x="42" y="550"/>
      <point x="42" y="349" type="curve" smooth="yes"/>
      <point x="42" y="149"/>
      <point x="194" y="-13"/>
      <point x="392" y="-13" type="curve" smooth="yes"/>
      <point x="529" y="-13"/>
      <point x="613" y="52"/>
    </contour>
    <contour>
      <point x="397" y="125" type="curve" smooth="yes"/>
      <point x="281" y="125"/>
      <point x="185" y="202"/>
      <point x="185" y="349" type="curve" smooth="yes"/>
      <point x="185" y="496"/>
      <point x="281" y="575"/>
      <point x="397" y="575" type="curve" smooth="yes"/>
      <point x="512" y="575"/>
      <point x="609" y="496"/>
      <point x="609" y="349" type="curve" smooth="yes"/>
      <point x="609" y="202"/>
      <point x="512" y="125"/>
    </contour>
    <component base="E" xOffset="529"/>
  </outline>
</glyph>
<glyph name="Schwa" format="2">
  <advance width="776"/>
  <unicode hex="018F"/>
  <outline>
    <contour>
      <point x="379" y="-13" type="curve" smooth="yes"/>
      <point x="587" y="-13"/>
      <point x="734" y="149"/>
      <point x="734" y="349" type="curve" smooth="yes"/>
      <point x="734" y="550"/>
      <point x="587" y="713"/>
      <point x="379" y="713" type="curve" smooth="yes"/>
      <point x="259" y="713"/>
      <point x="169" y="676"/>
      <point x="80" y="590" type="curve"/>
      <point x="182" y="493" type="line"/>
      <point x="236" y="550"/>
      <point x="294" y="575"/>
      <point x="376" y="575" type="curve" smooth="yes"/>
      <point x="502" y="575"/>
      <point x="589" y="477"/>
      <point x="589" y="349" type="curve" smooth="yes"/>
      <point x="589" y="221"/>
      <point x="511" y="125"/>
      <point x="376" y="125" type="curve" smooth="yes"/>
      <point x="274" y="125"/>
      <point x="197" y="181"/>
      <point x="188" y="285" type="curve"/>
      <point x="159" y="266" type="line"/>
      <point x="653" y="266" type="line"/>
      <point x="653" y="396" type="line"/>
      <point x="47" y="396" type="line"/>
      <point x="44" y="375"/>
      <point x="42" y="344"/>
      <point x="42" y="322" type="curve" smooth="yes"/>
      <point x="42" y="128"/>
      <point x="169" y="-13"/>
    </contour>
  </outline>
</glyph>
<glyph name="Fhook" format="2">
  <advance width="556"/>
  <unicode hex="0191"/>
  <anchor x="150" y="0" name="bottom"/>
  <anchor x="118" y="0" name="ogonek"/>
  <anchor x="304" y="700" name="top"/>
  <outline>
    <contour>
      <point x="-6" y="-229" type="curve" smooth="yes"/>
      <point x="134" y="-229"/>
      <point x="220" y="-160"/>
      <point x="220" y="-16" type="curve" smooth="yes"/>
      <point x="220" y="0" type="line"/>
      <point x="150" y="186" type="line"/>
      <point x="80" y="0" type="line"/>
      <point x="80" y="-25" type="line" smooth="yes"/>
      <point x="80" y="-71"/>
      <point x="48" y="-99"/>
      <point x="8" y="-99" type="curve" smooth="yes"/>
      <point x="-27" y="-99"/>
      <point x="-53" y="-80"/>
      <point x="-69" y="-59" type="curve"/>
      <point x="-156" y="-174" type="line"/>
      <point x="-119" y="-208"/>
      <point x="-66" y="-229"/>
    </contour>
    <component base="F"/>
  </outline>
</glyph>
<glyph name="florin" format="2">
  <advance width="620"/>
  <unicode hex="0192"/>
  <outline>
    <contour>
      <point x="48" y="1" type="line"/>
      <point x="77" y="-3"/>
      <point x="107" y="-7"/>
      <point x="136" y="-7" type="curve" smooth="yes"/>
      <point x="230" y="-7"/>
      <point x="309" y="33"/>
      <point x="340" y="172" type="curve" smooth="yes"/>
      <point x="413" y="504" type="line" smooth="yes"/>
      <point x="427" y="567"/>
      <point x="457" y="590"/>
      <point x="511" y="590" type="curve" smooth="yes"/>
      <point x="532" y="590"/>
      <point x="552" y="586"/>
      <point x="573" y="583" type="curve"/>
      <point x="573" y="700" type="line"/>
      <point x="549" y="703"/>
      <point x="524" y="707"/>
      <point x="500" y="707" type="curve" smooth="yes"/>
      <point x="399" y="707"/>
      <point x="320" y="661"/>
      <point x="289" y="521" type="curve" smooth="yes"/>
      <point x="216" y="189" type="line" smooth="yes"/>
      <point x="202" y="126"/>
      <point x="171" y="109"/>
      <point x="125" y="109" type="curve" smooth="yes"/>
      <point x="99" y="109"/>
      <point x="74" y="112"/>
      <point x="48" y="116" type="curve"/>
    </contour>
    <contour>
      <point x="78" y="317" type="line"/>
      <point x="543" y="317" type="line"/>
      <point x="543" y="424" type="line"/>
      <point x="78" y="424" type="line"/>
    </contour>
  </outline>
</glyph>
<glyph name="verticallinemod" format="2">
  <advance width="275"/>
  <unicode hex="02C8"/>
  <outline>
    <contour>
      <point x="70" y="420" type="line"/>
      <point x="205" y="420" type="line"/>
      <point x="205" y="740" type="line"/>
      <point x="70" y="740" type="line"/>
      <point x="70" y="469" type="line"/>
    </contour>
  </outline>
</glyph>
<glyph name="gravecomb" format="2">
  <unicode hex="0300"/>
  <anchor x="0" y="505" name="_top"/>
  <anchor x="1" y="660" name="top"/>
  <outline>
    <contour>
      <point x="-31" y="547" type="line"/>
      <point x="35" y="547" type="line"/>
      <point x="13" y="706" type="line"/>
      <point x="-138" y="706" type="line"/>
    </contour>
  </outline>
</glyph>
<glyph name="macroncomb" format="2">
  <unicode hex="0304"/>
  <anchor x="0" y="505" name="_top"/>
  <anchor x="0" y="681" name="top"/>
  <outline>
    <contour>
      <point x="-153" y="598" type="line"/>
      <point x="153" y="598" type="line"/>
      <point x="153" y="688" type="line"/>
      <point x="-153" y="688" type="line"/>
    </contour>
  </outline>
</glyph>
<glyph name="hookabovecomb" format="2">
  <unicode hex="0309"/>
  <anchor x="0" y="505" name="_top"/>
  <anchor x="0" y="705" name="top"/>
  <outline>
    <contour>
      <point x="-33" y="553" type="curve"/>
      <point x="43" y="553" type="line"/>
      <point x="67" y="567"/>
      <point x="80" y="596"/>
      <point x="80" y="630" type="curve" smooth="yes"/>
      <point x="80" y="682"/>
      <point x="33" y="724"/>
      <point x="-31" y="724" type="curve" smooth="yes"/>
      <point x="-67" y="724"/>
      <point x="-97" y="716"/>
      <point x="-123" y="696" type="curve"/>
      <point x="-82" y="627" type="line"/>
      <point x="-67" y="636"/>
      <point x="-55" y="641"/>
      <point x="-34" y="641" type="curve" smooth="yes"/>
      <point x="-14" y="641"/>
      <point x="10" y="629"/>
      <point x="10" y="605" type="curve" smooth="yes"/>
      <point x="10" y="587"/>
      <point x="-2" y="569"/>
    </contour>
  </outline>
</glyph>
<glyph name="hungarumlautcomb" format="2">
  <unicode hex="030B"/>
  <anchor x="0" y="505" name="_top"/>
  <anchor x="1" y="690" name="top"/>
  <outline>
    <contour>
      <point x="51" y="556" type="line"/>
      <point x="114" y="556" type="line"/>
      <point x="221" y="715" type="line"/>
      <point x="78" y="715" type="line"/>
    </contour>
    <contour>
      <point x="-114" y="556" type="line"/>
      <point x="-51" y="556" type="line"/>
      <point x="56" y="715" type="line"/>
      <point x="-87" y="715" type="line"/>
    </contour>
  </outline>
</glyph>
<glyph name="brevebelowcomb" format="2">
  <unicode hex="032E"/>
  <anchor x="0" y="0" name="_bottom"/>
  <outline>
    <contour>
      <point x="0" y="-220" type="curve" smooth="yes"/>
      <point x="99" y="-220"/>
      <point x="160" y="-159"/>
      <point x="160" y="-68" type="curve"/>
      <point x="60" y="-68" type="line"/>
      <point x="61" y="-116"/>
      <point x="38" y="-146"/>
      <point x="0" y="-146" type="curve" smooth="yes"/>
      <point x="-38" y="-146"/>
      <point x="-61" y="-116"/>
      <point x="-60" y="-68" type="curve"/>
      <point x="-160" y="-68" type="line"/>
      <point x="-160" y="-159"/>
      <point x="-98" y="-220"/>
    </contour>
  </outline>
</glyph>
<glyph name="strokeshortcomb" format="2">
  <unicode hex="0335"/>
  <anchor x="0" y="351" name="_bar"/>
  <outline>
    <contour>
      <point x="-181" y="282" type="line"/>
      <point x="182" y="282" type="line"/>
      <point x="182" y="402" type="line"/>
      <point x="-181" y="402" type="line"/>
    </contour>
  </outline>
</glyph>
<glyph name="pi" format="2">
  <advance width="609"/>
  <unicode hex="03C0"/>
  <outline>
    <contour>
      <point x="557" y="-7" type="curve" smooth="yes"/>
      <point x="568" y="-7"/>
      <point x="582" y="-6"/>
      <point x="589" y="-5" type="curve"/>
      <point x="589" y="121" type="line"/>
      <point x="580" y="120"/>
      <point x="570" y="119"/>
      <point x="561" y="119" type="curve" smooth="yes"/>
      <point x="516" y="119"/>
      <point x="496" y="137"/>
      <point x="496" y="179" type="curve" smooth="yes"/>
      <point x="496" y="385" type="line"/>
      <point x="589" y="385" type="line"/>
      <point x="589" y="505" type="line"/>
      <point x="20" y="505" type="line"/>
      <point x="20" y="385" type="line"/>
      <point x="113" y="385" type="line"/>
      <point x="113" y="0" type="line"/>
      <point x="248" y="0" type="line"/>
      <point x="248" y="385" type="line"/>
      <point x="361" y="385" type="line"/>
      <point x="361" y="169" type="line" smooth="yes"/>
      <point x="361" y="23"/>
      <point x="458" y="-7"/>
    </contour>
  </outline>
</glyph>
<glyph name="dagger" format="2">
  <advance width="460"/>
  <unicode hex="2020"/>
  <outline>
    <contour>
      <point x="175" y="301" type="line"/>
      <point x="285" y="301" type="line"/>
      <point x="285" y="753" type="line"/>
      <point x="175" y="753" type="line"/>
    </contour>
    <contour>
      <point x="80" y="562" type="line"/>
      <point x="380" y="562" type="line"/>
      <point x="380" y="667" type="line"/>
      <point x="80" y="667" type="line"/>
    </contour>
  </outline>
</glyph>
<glyph name="daggerdbl" format="2">
  <advance width="460"/>
  <unicode hex="2021"/>
  <outline>
    <contour>
      <point x="175" y="301" type="line"/>
      <point x="285" y="301" type="line"/>
      <point x="285" y="753" type="line"/>
      <point x="175" y="753" type="line"/>
    </contour>
    <contour>
      <point x="80" y="386" type="line"/>
      <point x="380" y="386" type="line"/>
      <point x="380" y="491" type="line"/>
      <point x="80" y="491" type="line"/>
    </contour>
    <contour>
      <point x="80" y="563" type="line"/>
      <point x="380" y="563" type="line"/>
      <point x="380" y="668" type="line"/>
      <point x="80" y="668" type="line"/>
    </contour>
  </outline>
</glyph>
<glyph name="guilsinglleft" format="2">
  <advance width="379"/>
  <unicode hex="2039"/>
  <outline>
    <contour>
      <point x="188" y="48" type="line"/>
      <point x="329" y="48" type="line"/>
      <point x="197" y="267" type="line"/>
      <point x="197" y="271" type="line"/>
      <point x="329" y="477" type="line"/>
      <point x="186" y="477" type="line"/>
      <point x="60" y="263" type="line"/>
    </contour>
  </outline>
</glyph>
<glyph name="tugrik" format="2">
  <advance width="630"/>
  <unicode hex="20AE"/>
  <outline>
    <contour>
      <point x="245" y="30" type="line"/>
      <point x="385" y="30" type="line"/>
      <point x="385" y="605" type="line"/>
      <point x="245" y="605" type="line"/>
    </contour>
    <contour>
      <point x="45" y="535" type="line"/>
      <point x="585" y="535" type="line"/>
      <point x="585" y="670" type="line"/>
      <point x="45" y="670" type="line"/>
    </contour>
    <contour>
      <point x="81" y="137" type="line"/>
      <point x="549" y="237" type="line"/>
      <point x="549" y="327" type="line"/>
      <point x="81" y="227" type="line"/>
    </contour>
    <contour>
      <point x="81" y="283" type="line"/>
      <point x="549" y="383" type="line"/>
      <point x="549" y="467" type="line"/>
      <point x="81" y="372" type="line"/>
    </contour>
  </outline>
</glyph>
<glyph name="peso" format="2">
  <advance width="619"/>
  <unicode hex="20B1"/>
  <outline>
    <contour>
      <point x="80" y="30" type="line"/>
      <point x="220" y="30" type="line"/>
      <point x="220" y="174" type="line"/>
      <point x="286" y="174" type="line" smooth="yes"/>
      <point x="442" y="174"/>
      <point x="559" y="253"/>
      <point x="559" y="421" type="curve" smooth="yes"/>
      <point x="559" y="588"/>
      <point x="442" y="670"/>
      <point x="286" y="670" type="curve" smooth="yes"/>
      <point x="80" y="670" type="line"/>
    </contour>
    <contour>
      <point x="220" y="309" type="line"/>
      <point x="220" y="535" type="line"/>
      <point x="298" y="535" type="line" smooth="yes"/>
      <point x="374" y="535"/>
      <point x="417" y="506"/>
      <point x="417" y="420" type="curve" smooth="yes"/>
      <point x="417" y="333"/>
      <point x="374" y="309"/>
      <point x="298" y="309" type="curve" smooth="yes"/>
    </contour>
    <contour>
      <point x="20" y="343" type="line"/>
      <point x="619" y="343" type="line"/>
      <point x="619" y="405" type="line"/>
      <point x="20" y="405" type="line"/>
    </contour>
    <contour>
      <point x="20" y="439" type="line"/>
      <point x="619" y="439" type="line"/>
      <point x="619" y="501" type="line"/>
      <point x="20" y="501" type="line"/>
    </contour>
  </outline>
</glyph>
<glyph name="ruble" format="2">
  <advance width="599"/>
  <unicode hex="20BD"/>
  <outline>
    <contour>
      <point x="80" y="30" type="line"/>
      <point x="220" y="30" type="line"/>
      <point x="220" y="244" type="line"/>
      <point x="326" y="244" type="line" smooth="yes"/>
      <point x="483" y="244"/>
      <point x="579" y="323"/>
      <point x="579" y="461" type="curve" smooth="yes"/>
      <point x="579" y="598"/>
      <point x="483" y="680"/>
      <point x="326" y="680" type="curve" smooth="yes"/>
      <point x="80" y="680" type="line"/>
    </contour>
    <contour>
      <point x="220" y="379" type="line"/>
      <point x="220" y="545" type="line"/>
      <point x="318" y="545" type="line" smooth="yes"/>
      <point x="394" y="545"/>
      <point x="437" y="516"/>
      <point x="437" y="460" type="curve" smooth="yes"/>
      <point x="437" y="403"/>
      <point x="394" y="379"/>
      <point x="318" y="379" type="curve" smooth="yes"/>
    </contour>
    <contour>
      <point x="20" y="244" type="line"/>
      <point x="183" y="244" type="line"/>
      <point x="183" y="329" type="line"/>
      <point x="20" y="329" type="line"/>
    </contour>
    <contour>
      <point x="20" y="103" type="line"/>
      <point x="468" y="103" type="line"/>
      <point x="467" y="188" type="line"/>
      <point x="20" y="188" type="line"/>
    </contour>
  </outline>
</glyph>
<glyph name="lari" format="2">
  <advance width="722"/>
  <unicode hex="20BE"/>
  <outline>
    <contour>
      <point x="564" y="395" type="curve"/>
      <point x="709" y="395" type="line"/>
      <point x="686" y="570"/>
      <point x="543" y="673"/>
      <point x="377" y="673" type="curve" smooth="yes"/>
      <point x="194" y="673"/>
      <point x="42" y="547"/>
      <point x="42" y="359" type="curve" smooth="yes"/>
      <point x="42" y="297"/>
      <point x="74" y="217"/>
      <point x="146" y="165" type="curve"/>
      <point x="146" y="163" type="line"/>
      <point x="20" y="163" type="line"/>
      <point x="20" y="30" type="line"/>
      <point x="671" y="30" type="line"/>
      <point x="671" y="163" type="line"/>
      <point x="399" y="163" type="line" smooth="yes"/>
      <point x="279" y="163"/>
      <point x="185" y="233"/>
      <point x="185" y="359" type="curve" smooth="yes"/>
      <point x="185" y="501"/>
      <point x="281" y="539"/>
      <point x="377" y="539" type="curve" smooth="yes"/>
      <point x="457" y="539"/>
      <point x="544" y="518"/>
    </contour>
    <contour>
      <point x="397" y="775" type="line"/>
      <point x="397" y="395" type="line"/>
      <point x="487" y="395" type="line"/>
      <point x="487" y="775" type="line"/>
    </contour>
    <contour>
      <point x="256" y="775" type="line"/>
      <point x="256" y="395" type="line"/>
      <point x="346" y="395" type="line"/>
      <point x="346" y="775" type="line"/>
    </contour>
  </outline>
</glyph>
<glyph name="upArrow" format="2">
  <advance width="600"/>
  <unicode hex="2191"/>
  <outline>
    <contour>
      <point x="237" y="41" type="line"/>
      <point x="363" y="41" type="line"/>
      <point x="363" y="443" type="line"/>
      <point x="371" y="447" type="line"/>
      <point x="482" y="322" type="line"/>
      <point x="568" y="394" type="line"/>
      <point x="300" y="672" type="line"/>
      <point x="32" y="394" type="line"/>
      <point x="114" y="322" type="line"/>
      <point x="229" y="447" type="line"/>
      <point x="237" y="443" type="line"/>
    </contour>
  </outline>
</glyph>
<glyph name="upDownArrow" format="2">
  <advance width="600"/>
  <unicode hex="2195"/>
  <outline>
    <contour>
      <point x="300" y="-33" type="line"/>
      <point x="568" y="245" type="line"/>
      <point x="486" y="317" type="line"/>
      <point x="371" y="192" type="line"/>
      <point x="363" y="196" type="line"/>
      <point x="363" y="540" type="line"/>
      <point x="371" y="544" type="line"/>
      <point x="482" y="419" type="line"/>
      <point x="568" y="491" type="line"/>
      <point x="300" y="769" type="line"/>
      <point x="32" y="491" type="line"/>
      <point x="114" y="419" type="line"/>
      <point x="229" y="544" type="line"/>
      <point x="237" y="540" type="line"/>
      <point x="237" y="196" type="line"/>
      <point x="229" y="192" type="line"/>
      <point x="118" y="317" type="line"/>
      <point x="32" y="245" type="line"/>
    </contour>
  </outline>
</glyph>
<glyph name="increment" format="2">
  <advance width="736"/>
  <unicode hex="2206"/>
  <outline>
    <contour>
      <point x="11" y="0" type="line"/>
      <point x="725" y="0" type="line"/>
      <point x="421" y="700" type="line"/>
      <point x="311" y="700" type="line"/>
    </contour>
    <contour>
      <point x="175" y="80" type="line"/>
      <point x="357" y="554" type="line" smooth="yes"/>
      <point x="359" y="558"/>
      <point x="361" y="563"/>
      <point x="362" y="568" type="curve"/>
      <point x="365" y="568" type="line"/>
      <point x="366" y="563"/>
      <point x="368" y="558"/>
      <point x="370" y="554" type="curve" smooth="yes"/>
      <point x="555" y="80" type="line"/>
      <point x="575" y="103" type="line"/>
      <point x="155" y="103" type="line"/>
    </contour>
  </outline>
</glyph>
<glyph name="product" format="2">
  <advance width="658"/>
  <unicode hex="220F"/>
  <outline>
    <contour>
      <point x="415" y="-220" type="line"/>
      <point x="543" y="-220" type="line"/>
      <point x="543" y="700" type="line"/>
      <point x="415" y="700" type="line"/>
    </contour>
    <contour>
      <point x="115" y="-220" type="line"/>
      <point x="243" y="-220" type="line"/>
      <point x="243" y="700" type="line"/>
      <point x="115" y="700" type="line"/>
    </contour>
    <contour>
      <point x="40" y="590" type="line"/>
      <point x="618" y="590" type="line"/>
      <point x="618" y="700" type="line"/>
      <point x="40" y="700" type="line"/>
    </contour>
  </outline>
</glyph>
<glyph name="summation" format="2">
  <advance width="570"/>
  <unicode hex="2211"/>
  <outline>
    <contour>
      <point x="241" y="-75" type="curve" smooth="yes"/>
      <point x="419" y="253" type="line"/>
      <point x="250" y="555" type="line" smooth="yes"/>
      <point x="240" y="574"/>
      <point x="232" y="584"/>
      <point x="227" y="587" type="curve"/>
      <point x="229" y="591" type="line"/>
      <point x="234" y="589"/>
      <point x="248" y="590"/>
      <point x="272" y="590" type="curve" smooth="yes"/>
      <point x="538" y="590" type="line"/>
      <point x="538" y="700" type="line"/>
      <point x="20" y="700" type="line"/>
      <point x="20" y="685" type="line"/>
      <point x="290" y="232" type="line"/>
      <point x="290" y="258" type="line"/>
      <point x="20" y="-205" type="line"/>
      <point x="20" y="-220" type="line"/>
      <point x="538" y="-220" type="line"/>
      <point x="538" y="-110" type="line"/>
      <point x="263" y="-110" type="line" smooth="yes"/>
      <point x="249" y="-110"/>
      <point x="229" y="-108"/>
      <point x="221" y="-111" type="curve"/>
      <point x="218" y="-107" type="line"/>
      <point x="228" y="-100"/>
      <point x="236" y="-85"/>
    </contour>
  </outline>
</glyph>
<glyph name="integral" format="2">
  <advance width="428"/>
  <unicode hex="222B"/>
  <outline>
    <contour>
      <point x="-120" y="-225" type="line"/>
      <point x="-95" y="-230"/>
      <point x="-61" y="-233"/>
      <point x="-32" y="-233" type="curve" smooth="yes"/>
      <point x="62" y="-233"/>
      <point x="141" y="-193"/>
      <point x="172" y="-54" type="curve" smooth="yes"/>
      <point x="298" y="511" type="line" smooth="yes"/>
      <point x="312" y="574"/>
      <point x="342" y="597"/>
      <point x="396" y="597" type="curve" smooth="yes"/>
      <point x="410" y="597"/>
      <point x="424" y="595"/>
      <point x="436" y="590" type="curve"/>
      <point x="458" y="703" type="line"/>
      <point x="434" y="710"/>
      <point x="414" y="714"/>
      <point x="385" y="714" type="curve" smooth="yes"/>
      <point x="284" y="714"/>
      <point x="205" y="667"/>
      <point x="174" y="528" type="curve" smooth="yes"/>
      <point x="48" y="-37" type="line" smooth="yes"/>
      <point x="34" y="-100"/>
      <point x="3" y="-117"/>
      <point x="-43" y="-117" type="curve" smooth="yes"/>
      <point x="-67" y="-117"/>
      <point x="-85" y="-115"/>
      <point x="-100" y="-111" type="curve"/>
    </contour>
  </outline>
</glyph>
<glyph name="blackSquare" format="2">
  <advance width="890"/>
  <unicode hex="25A0"/>
  <outline>
    <contour>
      <point x="90" y="0" type="line"/>
      <point x="800" y="0" type="line"/>
      <point x="800" y="700" type="line"/>
      <point x="90" y="700" type="line"/>
    </contour>
  </outline>
</glyph>
<glyph name="upBlackTriangle" format="2">
  <advance width="885"/>
  <unicode hex="25B2"/>
  <outline>
    <contour>
      <point x="30" y="0" type="line"/>
      <point x="855" y="0" type="line"/>
      <point x="443" y="715" type="line"/>
    </contour>
  </outline>
</glyph>
<glyph name="upBlackSmallTriangle" format="2">
  <advance width="397"/>
  <unicode hex="25B4"/>
  <outline>
    <contour>
      <point x="45" y="229" type="line"/>
      <point x="352" y="229" type="line"/>
      <point x="198" y="495" type="line"/>
    </contour>
  </outline>
</glyph>
<glyph name="blackDiamond" format="2">
  <advance width="786"/>
  <unicode hex="25C6"/>
  <outline>
    <contour>
      <point x="30" y="350" type="line"/>
      <point x="393" y="-13" type="line"/>
      <point x="756" y="350" type="line"/>
      <point x="393" y="713" type="line"/>
    </contour>
  </outline>
</glyph>
<glyph name="lozenge" format="2">
  <advance width="568"/>
  <unicode hex="25CA"/>
  <outline>
    <contour>
      <point x="229" y="0" type="line"/>
      <point x="339" y="0" type="line"/>
      <point x="528" y="352" type="line"/>
      <point x="339" y="700" type="line"/>
      <point x="229" y="700" type="line"/>
      <point x="40" y="348" type="line"/>
    </contour>
    <contour>
      <point x="284" y="133" type="line"/>
      <point x="283" y="138"/>
      <point x="280" y="143"/>
      <point x="278" y="147" type="curve" smooth="yes"/>
      <point x="178" y="353" type="line"/>
      <point x="275" y="554" type="line" smooth="yes"/>
      <point x="277" y="558"/>
      <point x="279" y="563"/>
      <point x="280" y="568" type="curve"/>
      <point x="283" y="568" type="line"/>
      <point x="284" y="563"/>
      <point x="286" y="558"/>
      <point x="288" y="554" type="curve" smooth="yes"/>
      <point x="389" y="347" type="line"/>
      <point x="291" y="147" type="line" smooth="yes"/>
      <point x="289" y="143"/>
      <point x="287" y="138"/>
      <point x="286" y="133" type="curve"/>
    </contour>
  </outline>
</glyph>
<glyph name="ballotBoxWithCheck" format="2">
  <advance width="890"/>
  <unicode hex="2611"/>
  <outline>
    <contour>
      <point x="356" y="146" type="line"/>
      <point x="419" y="235" type="line"/>
      <point x="290" y="373" type="line"/>
      <point x="213" y="299" type="line"/>
    </contour>
    <contour>
      <point x="356" y="146" type="line"/>
      <point x="680" y="495" type="line"/>
      <point x="603" y="569" type="line"/>
      <point x="294" y="236" type="line"/>
    </contour>
    <component base="whiteSquare"/>
  </outline>
</glyph>
<glyph name="checkmark" format="2">
  <advance width="600"/>
  <unicode hex="2713"/>
  <outline>
    <contour>
      <point x="234" y="146" type="line"/>
      <point x="297" y="235" type="line"/>
      <point x="153" y="389" type="line"/>
      <point x="76" y="315" type="line"/>
    </contour>
    <contour>
      <point x="234" y="146" type="line"/>
      <point x="558" y="495" type="line"/>
      <point x="481" y="569" type="line"/>
      <point x="172" y="236" type="line"/>
    </contour>
  </outline>
</glyph>
<glyph name="whiteSmallStar" format="2">
  <advance width="480"/>
  <unicode hex="2B52"/>
  <outline>
    <contour>
      <point x="116" y="199" type="line"/>
      <point x="239" y="289" type="line"/>
      <point x="363" y="199" type="line"/>
      <point x="316" y="344" type="line"/>
      <point x="440" y="434" type="line"/>
      <point x="287" y="434" type="line"/>
      <point x="239" y="579" type="line"/>
      <point x="192" y="434" type="line"/>
      <point x="40" y="434" type="line"/>
      <point x="163" y="344" type="line"/>
    </contour>
    <contour>
      <point x="184" y="291" type="line"/>
      <point x="211" y="359" type="line"/>
      <point x="149" y="396" type="line"/>
      <point x="222" y="392" type="line"/>
      <point x="239" y="463" type="line"/>
      <point x="258" y="392" type="line"/>
      <point x="330" y="396" type="line"/>
      <point x="268" y="359" type="line"/>
      <point x="297" y="291" type="line"/>
      <point x="239" y="339" type="line"/>
    </contour>
  </outline>
</glyph>
<glyph name="Saltillo" format="2">
  <advance width="288"/>
  <unicode hex="A78B"/>
  <outline>
    <contour>
      <point x="97" y="193" type="line"/>
      <point x="191" y="193" type="line"/>
      <point x="214" y="577" type="line"/>
      <point x="214" y="700" type="line"/>
      <point x="74" y="700" type="line"/>
      <point x="74" y="577" type="line"/>
    </contour>
  </outline>
</glyph>
<glyph name="saltillo" format="2">
  <advance width="288"/>
  <unicode hex="A78C"/>
  <outline>
    <contour>
      <point x="97" y="263" type="line"/>
      <point x="191" y="263" type="line"/>
      <point x="214" y="577" type="line"/>
      <point x="214" y="700" type="line"/>
      <point x="74" y="700" type="line"/>
      <point x="74" y="577" type="line"/>
    </contour>
  </outline>
</glyph>
<glyph name="fi" format="2">
  <advance width="642"/>
  <unicode hex="FB01"/>
  <anchor x="180" y="0" name="bottom_1"/>
  <anchor x="279" y="740" name="top_1"/>
  <anchor x="504" y="0" name="bottom_2"/>
  <anchor x="483" y="0" name="ogonek_2"/>
  <anchor x="504" y="505" name="top_2"/>
  <anchor x="392" y="0" name="caret_1"/>
  <outline>
    <contour>
      <point x="21" y="385" type="line"/>
      <point x="561" y="385" type="line"/>
      <point x="571" y="505" type="line"/>
      <point x="21" y="505" type="line"/>
    </contour>
    <component base="f"/>
    <component base="i" xOffset="366"/>
  </outline>
</glyph>
<glyph name="breveinvertedcomb.case" format="2">
  <anchor x="0" y="700" name="_top"/>
  <anchor x="0" y="831" name="top"/>
  <outline>
    <contour>
      <point x="-150" y="737" type="curve"/>
      <point x="-56" y="737" type="line"/>
      <point x="-57" y="764"/>
      <point x="-28" y="785"/>
      <point x="0" y="785" type="curve" smooth="yes"/>
      <point x="28" y="785"/>
      <point x="57" y="764"/>
      <point x="56" y="737" type="curve"/>
      <point x="150" y="737" type="line"/>
      <point x="150" y="801"/>
      <point x="88" y="854"/>
      <point x="0" y="854" type="curve" smooth="yes"/>
      <point x="-89" y="854"/>
      <point x="-150" y="801"/>
    </contour>
  </outline>
</glyph>
<glyph name="cedi.tf" format="2">
  <advance width="596"/>
  <outline>
    <contour>
      <point x="339" y="27" type="curve" smooth="yes"/>
      <point x="451" y="27"/>
      <point x="536" y="76"/>
      <point x="589" y="140" type="curve"/>
      <point x="486" y="230" type="line"/>
      <point x="447" y="177"/>
      <point x="391" y="160"/>
      <point x="341" y="160" type="curve" smooth="yes"/>
      <point x="242" y="160"/>
      <point x="157" y="221"/>
      <point x="157" y="349" type="curve" smooth="yes"/>
      <point x="157" y="477"/>
      <point x="242" y="540"/>
      <point x="338" y="540" type="curve" smooth="yes"/>
      <point x="401" y="540"/>
      <point x="446" y="520"/>
      <point x="488" y="466" type="curve"/>
      <point x="588" y="561" type="line"/>
      <point x="522" y="639"/>
      <point x="430" y="673"/>
      <point x="339" y="673" type="curve" smooth="yes"/>
      <point x="163" y="673"/>
      <point x="14" y="540"/>
      <point x="14" y="349" type="curve" smooth="yes"/>
      <point x="14" y="159"/>
      <point x="171" y="27"/>
    </contour>
    <contour>
      <point x="284" y="-69" type="line"/>
      <point x="374" y="-69" type="line"/>
      <point x="374" y="775" type="line"/>
      <point x="284" y="775" type="line"/>
    </contour>
  </outline>
</glyph>
<glyph name="commaaccentcomb.loclMAH" format="2">
  <anchor x="0" y="0" name="_bottom"/>
  <outline>
    <contour>
      <point x="1" y="-220" type="curve" smooth="yes"/>
      <point x="51" y="-220"/>
      <point x="107" y="-190"/>
      <point x="107" y="-119" type="curve" smooth="yes"/>
      <point x="107" y="-84"/>
      <point x="79" y="-30"/>
      <point x="0" y="-31" type="curve"/>
      <point x="-28" y="-96" type="line"/>
      <point x="-24" y="-99" type="line"/>
      <point x="-18" y="-97"/>
      <point x="-12" y="-96"/>
      <point x="-2" y="-96" type="curve" smooth="yes"/>
      <point x="10" y="-96"/>
      <point x="23" y="-104"/>
      <point x="23" y="-119" type="curve" smooth="yes"/>
      <point x="23" y="-140"/>
      <point x="6" y="-147"/>
      <point x="-8" y="-147" type="curve" smooth="yes"/>
      <point x="-23" y="-147"/>
      <point x="-36" y="-140"/>
      <point x="-47" y="-130" type="curve"/>
      <point x="-93" y="-188" type="line"/>
      <point x="-55" y="-216"/>
      <point x="-37" y="-220"/>
    </contour>
  </outline>
</glyph>
<glyph name="five.numr" format="2">
  <advance width="345"/>
  <outline>
    <contour>
      <point x="149" y="308" type="curve" smooth="yes"/>
      <point x="232" y="308"/>
      <point x="300" y="363"/>
      <point x="300" y="440" type="curve" smooth="yes"/>
      <point x="300" y="506"/>
      <point x="253" y="572"/>
      <point x="175" y="572" type="curve" smooth="yes"/>
      <point x="164" y="572"/>
      <point x="157" y="571"/>
      <point x="148" y="568" type="curve"/>
      <point x="147" y="569" type="line"/>
      <point x="169" y="666" type="line"/>
      <point x="117" y="626" type="line"/>
      <point x="270" y="626" type="line"/>
      <point x="270" y="700" type="line"/>
      <point x="95" y="700" type="line"/>
      <point x="43" y="472" type="line"/>
      <point x="77" y="491"/>
      <point x="105" y="499"/>
      <point x="146" y="499" type="curve" smooth="yes"/>
      <point x="191" y="499"/>
      <point x="213" y="475"/>
      <point x="213" y="440" type="curve" smooth="yes"/>
      <point x="213" y="407"/>
      <point x="188" y="384"/>
      <point x="149" y="384" type="curve" smooth="yes"/>
      <point x="117" y="384"/>
      <point x="97" y="395"/>
      <point x="73" y="419" type="curve"/>
      <point x="25" y="361" type="line"/>
      <point x="62" y="323"/>
      <point x="99" y="308"/>
    </contour>
  </outline>
</glyph>
<glyph name="guarani.tf" format="2">
  <advance width="596"/>
  <outline>
    <contour>
      <point x="304" y="12" type="curve" smooth="yes"/>
      <point x="493" y="12"/>
      <point x="594" y="143"/>
      <point x="594" y="323" type="curve" smooth="yes"/>
      <point x="594" y="344"/>
      <point x="592" y="373"/>
      <point x="589" y="392" type="curve"/>
      <point x="272" y="392" type="line"/>
      <point x="272" y="278" type="line"/>
      <point x="483" y="278" type="line"/>
      <point x="455" y="289" type="line"/>
      <point x="446" y="192"/>
      <point x="393" y="140"/>
      <point x="307" y="140" type="curve" smooth="yes"/>
      <point x="198" y="140"/>
      <point x="144" y="230"/>
      <point x="144" y="349" type="curve" smooth="yes"/>
      <point x="144" y="468"/>
      <point x="207" y="559"/>
      <point x="307" y="559" type="curve" smooth="yes"/>
      <point x="369" y="559"/>
      <point x="388" y="544"/>
      <point x="430" y="496" type="curve"/>
      <point x="529" y="579" type="line"/>
      <point x="463" y="658"/>
      <point x="402" y="687"/>
      <point x="304" y="687" type="curve" smooth="yes"/>
      <point x="126" y="687"/>
      <point x="7" y="535"/>
      <point x="7" y="349" type="curve" smooth="yes"/>
      <point x="7" y="163"/>
      <point x="126" y="12"/>
    </contour>
    <contour>
      <point x="270" y="673" type="line"/>
      <point x="355" y="673" type="line"/>
      <point x="355" y="775" type="line"/>
      <point x="270" y="775" type="line"/>
    </contour>
    <contour>
      <point x="270" y="-69" type="line"/>
      <point x="355" y="-69" type="line"/>
      <point x="355" y="33" type="line"/>
      <point x="270" y="33" type="line"/>
    </contour>
  </outline>
</glyph>
<glyph name="hookabovecombviet.case" format="2">
  <advance width="300"/>
  <anchor x="0" y="700" name="_top"/>
  <anchor x="0" y="870" name="top"/>
  <outline>
    <contour>
      <point x="0" y="733" type="line"/>
      <point x="47" y="756"/>
      <point x="65" y="782"/>
      <point x="65" y="819" type="curve" smooth="yes"/>
      <point x="65" y="864"/>
      <point x="24" y="916"/>
      <point x="-58" y="916" type="curve" smooth="yes"/>
      <point x="-89" y="916"/>
      <point x="-124" y="903"/>
      <point x="-148" y="888" type="curve"/>
      <point x="-104" y="814" type="line"/>
      <point x="-89" y="823"/>
      <point x="-69" y="829"/>
      <point x="-51" y="829" type="curve" smooth="yes"/>
      <point x="-22" y="829"/>
      <point x="-9" y="815"/>
      <point x="-9" y="801" type="curve" smooth="yes"/>
      <point x="-9" y="791"/>
      <point x="-17" y="781"/>
      <point x="-39" y="773" type="curve"/>
    </contour>
  </outline>
</glyph>
<glyph name="horncomb.case" format="2">
  <anchor x="180" y="700" name="_topright"/>
  <outline>
    <contour>
      <point x="203" y="595" type="curve" smooth="yes"/>
      <point x="269" y="595"/>
      <point x="343" y="658"/>
      <point x="343" y="749" type="curve" smooth="yes"/>
      <point x="343" y="770"/>
      <point x="338" y="799"/>
      <point x="333" y="814" type="curve"/>
      <point x="217" y="814" type="line"/>
      <point x="223" y="797"/>
      <point x="226" y="779"/>
      <point x="226" y="764" type="curve" smooth="yes"/>
      <point x="227" y="722"/>
      <point x="212" y="693"/>
      <point x="158" y="693" type="curve" smooth="yes"/>
      <point x="119" y="693"/>
      <point x="91" y="713"/>
      <point x="-26" y="713" type="curve"/>
      <point x="-39" y="617" type="line"/>
      <point x="121" y="617"/>
      <point x="116" y="595"/>
    </contour>
  </outline>
</glyph>
<glyph name="macroncomb.case" format="2">
  <anchor x="0" y="700" name="_top"/>
  <anchor x="0" y="834" name="top"/>
  <outline>
    <contour>
      <point x="-140" y="740" type="line"/>
      <point x="140" y="740" type="line"/>
      <point x="140" y="830" type="line"/>
      <point x="-140" y="830" type="line"/>
    </contour>
  </outline>
</glyph>
<glyph name="seven.numr" format="2">
  <advance width="301"/>
  <outline>
    <contour>
      <point x="48" y="315" type="line"/>
      <point x="137" y="315" type="line"/>
      <point x="291" y="687" type="line"/>
      <point x="291" y="700" type="line"/>
      <point x="12" y="700" type="line"/>
      <point x="12" y="626" type="line"/>
      <point x="176" y="626" type="line"/>
      <point x="176" y="625" type="line"/>
      <point x="174" y="622"/>
      <point x="171" y="618"/>
      <point x="169" y="613" type="curve" smooth="yes"/>
    </contour>
  </outline>
</glyph>
<glyph name="slashlongcomb.case" format="2">
  <anchor x="380" y="361" name="_center"/>
  <outline>
    <contour>
      <point x="13" y="-40" type="line"/>
      <point x="125" y="-40" type="line"/>
      <point x="736" y="748" type="line"/>
      <point x="624" y="748" type="line"/>
    </contour>
  </outline>
</glyph>
<glyph name="t.ss10" format="2">
  <advance width="393"/>
  <anchor x="197" y="293" name="bar"/>
  <anchor x="196" y="0" name="bottom"/>
  <anchor x="198" y="276" name="center"/>
  <anchor x="196" y="610" name="top"/>
  <anchor x="315" y="740" name="topright"/>
  <outline>
    <contour>
      <point x="128" y="0" type="line"/>
      <point x="263" y="0" type="line"/>
      <point x="263" y="610" type="line"/>
      <point x="128" y="610" type="line"/>
    </contour>
    <contour>
      <point x="20" y="385" type="line"/>
      <point x="373" y="385" type="line"/>
      <point x="373" y="505" type="line"/>
      <point x="20" y="505" type="line"/>
    </contour>
  </outline>
</glyph>
<glyph name="tildecomb.case" format="2">
  <anchor x="0" y="700" name="_top"/>
  <anchor x="0" y="829" name="top"/>
  <outline>
    <contour>
      <point x="58" y="734" type="curve" smooth="yes"/>
      <point x="114" y="734"/>
      <point x="159" y="779"/>
      <point x="159" y="836" type="curve"/>
      <point x="86" y="836" type="line"/>
      <point x="86" y="823"/>
      <point x="77" y="810"/>
      <point x="58" y="810" type="curve" smooth="yes"/>
      <point x="14" y="810"/>
      <point x="16" y="842"/>
      <point x="-58" y="842" type="curve" smooth="yes"/>
      <point x="-114" y="842"/>
      <point x="-159" y="797"/>
      <point x="-159" y="740" type="curve"/>
      <point x="-86" y="740" type="line"/>
      <point x="-86" y="753"/>
      <point x="-77" y="766"/>
      <point x="-58" y="766" type="curve" smooth="yes"/>
      <point x="-14" y="766"/>
      <point x="-16" y="734"/>
    </contour>
  </outline>
</glyph>
<glyph name="tittle" format="2">
  <advance width="276"/>
  <outline>
    <contour>
      <point x="138" y="563" type="curve" smooth="yes"/>
      <point x="185" y="563"/>
      <point x="219" y="598"/>
      <point x="219" y="643" type="curve" smooth="yes"/>
      <point x="219" y="686"/>
      <point x="185" y="722"/>
      <point x="138" y="722" type="curve" smooth="yes"/>
      <point x="92" y="722"/>
      <point x="57" y="686"/>
      <point x="57" y="643" type="curve" smooth="yes"/>
      <point x="57" y="599"/>
      <point x="92" y="563"/>
    </contour>
  </outline>
</glyph>
<glyph name="won.tf" format="2">
  <advance width="596"/>
  <outline>
    <contour>
      <point x="103" y="30" type="line"/>
      <point x="237" y="30" type="line"/>
      <point x="293" y="423" type="line" smooth="yes"/>
      <point x="302" y="485"/>
      <point x="302" y="516"/>
      <point x="303" y="547" type="curve"/>
      <point x="305" y="547" type="line"/>
      <point x="306" y="516"/>
      <point x="309" y="485"/>
      <point x="316" y="423" type="curve" smooth="yes"/>
      <point x="359" y="30" type="line"/>
      <point x="494" y="30" type="line"/>
      <point x="582" y="670" type="line"/>
      <point x="470" y="670" type="line"/>
      <point x="440" y="282" type="line" smooth="yes"/>
      <point x="435" y="216"/>
      <point x="436" y="174"/>
      <point x="434" y="142" type="curve"/>
      <point x="432" y="142" type="line"/>
      <point x="429" y="174"/>
      <point x="426" y="216"/>
      <point x="418" y="282" type="curve" smooth="yes"/>
      <point x="368" y="670" type="line"/>
      <point x="232" y="670" type="line"/>
      <point x="183" y="282" type="line" smooth="yes"/>
      <point x="175" y="216"/>
      <point x="171" y="174"/>
      <point x="168" y="142" type="curve"/>
      <point x="167" y="142" type="line"/>
      <point x="164" y="174"/>
      <point x="162" y="216"/>
      <point x="157" y="282" type="curve" smooth="yes"/>
      <point x="127" y="670" type="line"/>
      <point x="14" y="670" type="line"/>
    </contour>
    <contour>
      <point x="3" y="306" type="line"/>
      <point x="593" y="306" type="line"/>
      <point x="593" y="386" type="line"/>
      <point x="3" y="386" type="line"/>
    </contour>
  </outline>
</glyph>
<glyph name="zero.numr" format="2">
  <advance width="378"/>
  <outline>
    <contour>
      <point x="189" y="308" type="curve" smooth="yes"/>
      <point x="269" y="308"/>
      <point x="339" y="366"/>
      <point x="339" y="458" type="curve" smooth="yes"/>
      <point x="339" y="556" type="line" smooth="yes"/>
      <point x="339" y="648"/>
      <point x="269" y="706"/>
      <point x="189" y="706" type="curve" smooth="yes"/>
      <point x="104" y="706"/>
      <point x="39" y="640"/>
      <point x="39" y="556" type="curve" smooth="yes"/>
      <point x="39" y="458" type="line" smooth="yes"/>
      <point x="39" y="380"/>
      <point x="98" y="308"/>
    </contour>
    <contour>
      <point x="189" y="386" type="curve" smooth="yes"/>
      <point x="145" y="386"/>
      <point x="125" y="423"/>
      <point x="125" y="467" type="curve" smooth="yes"/>
      <point x="125" y="546" type="line" smooth="yes"/>
      <point x="125" y="591"/>
      <point x="142" y="628"/>
      <point x="189" y="628" type="curve" smooth="yes"/>
      <point x="237" y="628"/>
      <point x="254" y="594"/>
      <point x="254" y="546" type="curve" smooth="yes"/>
      <point x="254" y="467" type="line" smooth="yes"/>
      <point x="254" y="422"/>
      <point x="234" y="386"/>
    </contour>
  </outline>
</glyph>
